<?xml version="1.0" encoding="utf-8"?>
<!-- Uploaded to: SVG Repo, www.svgrepo.com, Generator: SVG Repo Mixer Tools -->
<svg fill="#000000" width="800px" height="800px" viewBox="0 0 32 32" version="1.1" xmlns="http://www.w3.org/2000/svg">
<title>cloud-fog</title>
<path d="M5.753 21.953l20.28-0.008c1.932-0.227 3.521-1.496 4.201-3.223l0.012-0.035c0.316-0.828 0.499-1.786 0.499-2.787 0-1.82-0.605-3.499-1.624-4.846l0.015 0.020c-0.865-1.165-2.159-1.968-3.645-2.174l-0.029-0.003c0.145-0.342 0.229-0.74 0.229-1.157 0-0.045-0.001-0.090-0.003-0.135l0 0.006c-0.060-0.894-0.451-1.687-1.050-2.267l-0.001-0.001c-0.813-0.818-1.939-1.324-3.183-1.324-0.889 0-1.718 0.259-2.415 0.705l0.018-0.011c-2.52-3.16-7.256-3.051-10.657-0.989-2.056 0.998-3.449 3.071-3.449 5.469 0 0.643 0.1 1.263 0.286 1.845l-0.012-0.043c-2.332 0.765-3.986 2.923-3.986 5.466 0 0.125 0.004 0.248 0.012 0.371l-0.001-0.017c-0.001 0.039-0.002 0.086-0.002 0.132 0 1.261 0.403 2.428 1.088 3.378l-0.012-0.017c0.764 1.004 1.959 1.646 3.305 1.646 0.043 0 0.086-0.001 0.129-0.002l-0.006 0zM6.364 12.366c0.414-0 0.75-0.336 0.75-0.75 0-0.144-0.040-0.278-0.11-0.392l0.002 0.003c-1.604-2.643 0.070-4.946 2.172-6.221 1.248-0.775 2.757-1.242 4.374-1.265l0.006-0c0.075-0.004 0.163-0.006 0.251-0.006 1.866 0 3.505 0.971 4.44 2.435l0.013 0.021c0.134 0.218 0.371 0.361 0.641 0.361 0.206 0 0.392-0.083 0.527-0.217l-0 0c0.525-0.515 1.246-0.833 2.040-0.833 0.826 0 1.571 0.343 2.101 0.895l0.001 0.001c0.379 0.325 0.618 0.804 0.618 1.34 0 0.558-0.26 1.056-0.665 1.378l-0.004 0.003c-0.137 0.136-0.222 0.325-0.222 0.533 0 0.414 0.336 0.75 0.75 0.75 0.036 0 0.071-0.002 0.105-0.007l-0.004 0c0.177-0.028 0.381-0.044 0.589-0.044 1.316 0 2.482 0.642 3.202 1.63l0.008 0.011c0.808 1.078 1.293 2.437 1.293 3.91 0 0.794-0.141 1.555-0.4 2.26l0.015-0.046c-0.47 1.246-1.574 2.152-2.907 2.332l-0.019 0.002h-20.179c-0.034 0.002-0.074 0.002-0.115 0.002-0.863 0-1.629-0.411-2.114-1.049l-0.005-0.007c-0.483-0.684-0.772-1.535-0.772-2.453 0-0.046 0.001-0.093 0.002-0.139l-0 0.007c-0.015-0.13-0.023-0.28-0.023-0.432 0-2.089 1.587-3.807 3.62-4.016l0.017-0.001zM24.75 25c-0-0.414-0.336-0.75-0.75-0.75h-22c-0.414 0-0.75 0.336-0.75 0.75s0.336 0.75 0.75 0.75v0h22c0.414-0 0.75-0.336 0.75-0.75v0zM10 28.25h-6c-0.414 0-0.75 0.336-0.75 0.75s0.336 0.75 0.75 0.75v0h6c0.414 0 0.75-0.336 0.75-0.75s-0.336-0.75-0.75-0.75v0zM30 28.25h-16c-0.414 0-0.75 0.336-0.75 0.75s0.336 0.75 0.75 0.75v0h16c0.414 0 0.75-0.336 0.75-0.75s-0.336-0.75-0.75-0.75v0z"></path>
</svg>